<svg xmlns="http://www.w3.org/2000/svg" viewBox="0 0 1000 858" width="1000" height="858" aria-label="Fox Den logo">
  <title>Fox Den</title>
  <path fill="#3A3536" fill-rule="evenodd" d="M 129.00 532.50 L 184.50 528.00 L 133.00 528.50 L 128.00 519.50 L 146.00 516.50 L 117.50 519.00 L 143.00 514.50 L 154.00 513.50 L 151.50 517.00 L 161.00 520.50 L 176.00 513.50 L 192.00 518.50 L 199.50 515.00 L 194.00 513.50 L 201.00 513.50 L 258.50 519.00 L 198.00 505.50 L 208.00 501.50 L 211.00 506.50 L 252.00 513.50 L 244.50 511.00 L 249.50 503.00 L 241.50 497.00 L 244.50 492.00 L 230.50 487.00 L 245.50 488.00 L 236.00 474.50 L 213.00 470.50 L 202.00 477.50 L 190.00 476.50 L 181.00 461.50 L 183.50 481.00 L 180.00 485.50 L 171.50 481.00 L 172.50 472.00 L 175.00 474.50 L 178.50 468.00 L 172.00 466.50 L 139.00 478.50 L 129.00 492.50 L 129.00 488.50 L 122.00 486.50 L 114.00 500.50 L 105.00 496.50 L 101.50 499.00 L 118.00 479.50 L 116.00 485.50 L 124.50 479.00 L 123.50 472.00 L 129.00 464.50 L 128.50 470.00 L 134.00 455.50 L 132.50 462.00 L 140.00 458.50 L 141.00 466.50 L 157.00 453.50 L 157.00 457.50 L 172.00 455.50 L 171.50 441.00 L 184.50 433.00 L 176.50 422.00 L 179.00 413.50 L 181.00 419.50 L 184.50 415.00 L 172.00 405.50 L 170.50 415.00 L 151.00 444.50 L 153.50 428.00 L 156.00 430.50 L 160.50 424.00 L 157.00 421.50 L 143.00 419.50 L 131.00 427.50 L 132.00 421.50 L 124.00 428.50 L 132.00 416.50 L 120.00 420.50 L 103.50 417.00 L 132.50 415.00 L 126.50 415.00 L 123.50 408.00 L 128.50 404.00 L 124.50 404.00 L 142.00 391.50 L 137.00 389.50 L 123.00 396.50 L 103.50 392.00 L 143.00 369.50 L 137.50 376.00 L 143.00 374.50 L 143.00 378.50 L 147.50 375.00 L 140.50 354.00 L 150.50 346.00 L 153.50 325.00 L 148.50 323.00 L 157.50 315.00 L 153.50 312.00 L 155.50 304.00 L 165.00 303.50 L 170.00 295.50 L 178.50 312.00 L 172.50 314.00 L 175.00 320.50 L 170.00 313.50 L 168.50 320.00 L 177.00 324.50 L 177.00 321.50 L 192.50 334.00 L 188.00 332.50 L 190.00 335.50 L 201.50 339.00 L 193.00 343.50 L 179.50 343.00 L 186.50 351.00 L 180.00 346.50 L 182.00 352.50 L 206.50 363.00 L 197.00 360.50 L 198.50 367.00 L 204.50 368.00 L 191.50 369.00 L 204.00 369.50 L 210.00 365.50 L 216.50 369.00 L 182.00 369.50 L 182.00 373.50 L 178.00 367.50 L 173.50 368.00 L 181.00 377.50 L 190.00 376.50 L 217.50 389.00 L 204.00 395.50 L 190.50 394.00 L 204.50 405.00 L 199.00 404.50 L 213.00 411.50 L 193.00 414.50 L 186.00 409.50 L 184.50 413.00 L 209.00 427.50 L 218.00 422.50 L 214.50 428.00 L 220.00 430.50 L 222.50 422.00 L 219.00 415.50 L 211.50 417.00 L 214.50 411.00 L 220.00 412.50 L 222.00 406.50 L 226.00 409.50 L 234.00 400.50 L 237.00 405.50 L 237.50 402.00 L 245.50 411.00 L 240.50 409.00 L 244.50 415.00 L 245.50 449.00 L 262.50 499.00 L 281.50 519.00 L 271.00 510.50 L 277.00 518.50 L 297.50 531.00 L 129.00 532.50 Z M 878.00 516.50 L 875.50 480.00 L 865.50 450.00 L 868.50 442.00 L 864.00 437.50 L 863.50 444.00 L 860.50 431.00 L 843.50 404.00 L 814.50 378.00 L 823.50 372.00 L 808.50 372.00 L 812.50 362.00 L 830.00 352.50 L 828.50 349.00 L 837.50 340.00 L 835.00 333.50 L 830.50 334.00 L 832.50 323.00 L 825.50 327.00 L 837.50 313.00 L 822.50 315.00 L 837.00 298.50 L 845.50 301.00 L 839.50 319.00 L 852.00 323.50 L 856.00 319.50 L 859.50 324.00 L 865.50 338.00 L 859.50 343.00 L 860.50 352.00 L 868.00 354.50 L 869.00 350.50 L 870.00 356.50 L 880.00 357.50 L 894.50 368.00 L 887.00 371.50 L 870.00 369.50 L 868.50 374.00 L 908.50 392.00 L 886.00 396.50 L 871.50 391.00 L 880.50 399.00 L 873.00 394.50 L 873.00 398.50 L 882.00 399.50 L 899.50 411.00 L 894.00 409.50 L 892.00 418.50 L 908.50 418.00 L 897.00 421.50 L 882.00 419.50 L 880.50 423.00 L 906.00 444.50 L 890.00 446.50 L 873.50 441.00 L 874.50 453.00 L 888.50 476.00 L 887.00 479.50 L 878.00 479.50 L 875.50 474.00 L 878.00 516.50 Z M 826.00 343.50 L 807.50 338.00 L 813.00 334.50 L 811.00 339.50 L 826.00 343.50 Z M 137.00 345.50 L 123.50 342.00 L 145.00 342.50 L 137.00 345.50 Z M 136.00 371.50 L 118.50 368.00 L 142.00 367.50 L 136.00 371.50 Z M 219.50 438.00 L 194.50 432.00 L 219.50 438.00 Z M 121.00 442.50 L 107.50 439.00 L 119.00 434.50 L 123.50 439.00 L 120.00 440.50 L 131.50 440.00 L 121.00 442.50 Z M 150.00 457.50 L 162.00 441.50 L 165.50 443.00 L 150.00 457.50 Z M 62.00 514.50 L 68.50 502.00 L 57.50 502.00 L 70.00 486.50 L 70.50 490.00 L 72.50 481.00 L 68.50 481.00 L 70.00 477.50 L 66.50 480.00 L 79.00 464.50 L 85.50 474.00 L 82.50 473.00 L 82.50 484.00 L 87.00 481.50 L 100.50 496.00 L 74.00 513.50 L 67.50 510.00 L 70.00 502.50 L 62.00 514.50 Z M 223.00 500.50 L 224.00 493.50 L 215.50 495.00 L 228.00 489.50 L 226.00 495.50 L 242.50 499.00 L 229.00 496.50 L 223.00 500.50 Z M 974.00 544.50 L 857.00 530.50 L 675.50 532.00 L 709.00 529.50 L 696.00 523.50 L 727.00 517.50 L 742.00 517.50 L 748.00 521.50 L 756.00 517.50 L 783.00 520.50 L 789.50 518.00 L 790.00 511.50 L 792.00 517.50 L 809.00 525.50 L 819.00 509.50 L 772.00 507.50 L 857.00 513.50 L 859.00 516.50 L 827.00 511.50 L 841.50 516.00 L 838.50 517.00 L 844.50 525.00 L 841.00 529.50 L 879.00 531.50 L 892.50 531.00 L 881.00 529.50 L 875.50 524.00 L 889.00 526.50 L 896.00 510.50 L 906.00 527.50 L 920.50 526.00 L 907.00 520.50 L 940.00 529.50 L 899.50 508.00 L 904.00 510.50 L 902.50 503.00 L 904.00 506.50 L 909.00 502.50 L 920.00 508.50 L 922.00 502.50 L 930.00 508.50 L 937.00 489.50 L 948.50 503.00 L 939.50 507.00 L 947.50 516.00 L 945.50 526.00 L 952.00 531.50 L 955.00 528.50 L 965.00 532.50 L 971.50 540.00 L 967.00 541.50 L 973.00 542.50 L 973.00 537.50 L 974.00 544.50 Z M 170.00 508.50 L 200.00 490.50 L 213.50 493.00 L 206.00 493.50 L 203.00 499.50 L 190.00 504.50 L 170.00 508.50 Z M 82.00 523.50 L 75.50 519.00 L 88.50 512.00 L 74.00 515.50 L 91.00 507.50 L 96.50 515.00 L 90.00 518.50 L 124.00 511.50 L 106.50 511.00 L 123.00 502.50 L 126.00 504.50 L 130.00 497.50 L 140.50 500.00 L 142.50 507.00 L 138.00 508.50 L 149.50 510.00 L 106.00 514.50 L 82.00 523.50 Z M 710.00 520.50 L 729.00 513.50 L 758.50 510.00 L 710.00 520.50 Z M 256.50 528.00 L 243.50 526.00 L 245.00 519.50 L 253.00 519.50 L 204.50 517.00 L 232.00 518.50 L 236.00 527.50 L 256.50 528.00 Z M 30.00 543.50 L 26.00 542.50 L 48.00 530.50 L 69.00 533.50 L 88.00 527.50 L 91.00 533.50 L 122.50 532.00 L 30.00 543.50 Z M 248.00 698.50 L 221.00 697.50 L 198.00 689.50 L 177.50 672.00 L 168.50 652.00 L 166.50 630.00 L 172.50 606.00 L 187.00 587.50 L 211.00 574.50 L 254.00 571.50 L 277.00 577.50 L 302.50 597.00 L 312.50 617.00 L 313.50 645.00 L 301.50 673.00 L 277.00 691.50 L 248.00 698.50 Z M 100.00 696.50 L 48.50 696.00 L 53.50 685.00 L 53.50 583.00 L 48.50 573.00 L 154.00 572.50 L 156.00 600.50 L 132.00 592.50 L 96.50 593.00 L 97.00 626.50 L 131.00 626.50 L 143.50 621.00 L 143.00 652.50 L 128.00 646.50 L 96.50 647.00 L 95.50 691.00 L 100.00 696.50 Z M 454.00 696.50 L 396.00 696.50 L 398.50 688.00 L 378.00 657.50 L 358.50 684.00 L 359.00 695.50 L 315.00 696.50 L 327.50 686.00 L 362.50 637.00 L 313.50 573.00 L 372.00 572.50 L 371.50 588.00 L 391.00 610.50 L 409.50 585.00 L 407.00 572.50 L 453.00 572.50 L 406.50 632.00 L 426.50 664.00 L 454.00 696.50 Z M 594.00 696.50 L 524.50 696.00 L 528.50 688.00 L 528.50 581.00 L 525.00 572.50 L 594.00 572.50 L 618.00 576.50 L 644.00 589.50 L 657.50 607.00 L 662.50 640.00 L 651.50 670.00 L 624.00 690.50 L 594.00 696.50 Z M 791.00 696.50 L 680.50 696.00 L 685.50 688.00 L 685.50 581.00 L 681.00 572.50 L 788.50 574.00 L 789.00 600.50 L 764.00 592.50 L 728.50 594.00 L 729.00 622.50 L 763.00 622.50 L 775.50 617.00 L 775.50 649.00 L 759.00 642.50 L 730.00 642.50 L 728.50 675.00 L 771.00 676.50 L 796.00 666.50 L 791.00 696.50 Z M 949.00 696.50 L 912.00 696.50 L 907.00 689.50 L 912.00 694.50 L 916.50 693.00 L 901.50 685.00 L 847.00 622.50 L 844.50 692.00 L 849.50 696.00 L 813.00 696.50 L 817.50 683.00 L 817.50 588.00 L 811.50 573.00 L 855.00 572.50 L 917.00 642.50 L 917.50 583.00 L 911.50 573.00 L 950.00 572.50 L 945.50 584.00 L 945.50 684.00 L 949.00 696.50 Z M 246.50 677.00 L 255.00 673.50 L 264.50 660.00 L 267.50 619.00 L 256.00 595.50 L 237.00 590.50 L 224.00 596.50 L 216.50 607.00 L 212.50 645.00 L 216.50 662.00 L 227.00 676.50 L 246.50 677.00 Z M 586.50 676.00 L 601.00 672.50 L 613.50 658.00 L 615.50 617.00 L 603.00 597.50 L 572.00 592.50 L 571.50 676.00 L 586.50 676.00 Z M 56.50 683.00 L 56.00 612.50 L 56.50 683.00 Z M 531.50 684.00 L 531.00 639.50 L 531.50 684.00 Z M 506.00 832.50 L 458.00 831.50 L 393.00 823.50 L 287.50 794.00 L 299.00 796.50 L 305.00 789.50 L 322.00 787.50 L 323.50 798.00 L 335.50 806.00 L 321.00 804.50 L 359.00 813.50 L 355.00 811.50 L 362.00 812.50 L 363.00 808.50 L 398.00 794.50 L 384.00 791.50 L 433.00 784.50 L 408.50 791.00 L 412.00 802.50 L 429.00 802.50 L 437.50 792.00 L 437.50 785.00 L 448.50 782.00 L 434.00 783.50 L 461.00 774.50 L 465.00 778.50 L 466.50 775.00 L 462.00 765.50 L 454.50 771.00 L 460.00 772.50 L 429.00 779.50 L 415.00 780.50 L 429.50 777.00 L 420.00 776.50 L 419.50 773.00 L 434.00 769.50 L 442.00 759.50 L 447.00 762.50 L 453.00 758.50 L 457.00 747.50 L 481.50 746.00 L 453.50 738.00 L 463.00 726.50 L 476.00 732.50 L 478.00 737.50 L 488.00 736.50 L 528.00 752.50 L 546.00 757.50 L 557.00 754.50 L 549.50 760.00 L 557.00 757.50 L 561.00 762.50 L 573.00 755.50 L 584.00 757.50 L 588.00 750.50 L 603.00 756.50 L 626.00 754.50 L 634.00 745.50 L 650.00 755.50 L 660.00 749.50 L 657.00 754.50 L 669.00 744.50 L 677.00 746.50 L 692.00 766.50 L 712.00 763.50 L 707.50 762.00 L 711.00 757.50 L 716.50 758.00 L 714.00 762.50 L 724.00 762.50 L 718.50 760.00 L 723.00 756.50 L 701.00 755.50 L 706.00 753.50 L 748.00 754.50 L 738.50 757.00 L 746.00 758.50 L 738.50 760.00 L 745.00 761.50 L 770.50 760.00 L 708.00 764.50 L 668.00 775.50 L 665.50 778.00 L 670.00 778.50 L 749.00 765.50 L 756.50 766.00 L 751.50 767.00 L 755.50 769.00 L 754.50 776.00 L 738.00 781.50 L 741.50 779.00 L 740.50 770.00 L 744.50 769.00 L 732.00 769.50 L 738.50 774.00 L 733.00 784.50 L 771.50 775.00 L 714.00 792.50 L 709.50 791.00 L 710.50 786.00 L 727.00 777.50 L 724.50 772.00 L 728.00 769.50 L 672.00 778.50 L 682.00 777.50 L 687.50 782.00 L 687.50 798.00 L 675.50 801.00 L 687.50 800.00 L 668.00 806.50 L 581.00 825.50 L 506.00 832.50 Z M 580.00 753.50 L 564.50 749.00 L 572.00 740.50 L 581.50 748.00 L 580.00 753.50 Z M 389.00 784.50 L 328.00 780.50 L 334.50 778.00 L 329.50 772.00 L 330.50 759.00 L 352.00 757.50 L 347.50 756.00 L 359.00 742.50 L 366.50 754.00 L 364.50 759.00 L 368.50 760.00 L 365.50 761.00 L 374.50 765.00 L 341.50 776.00 L 377.00 777.50 L 395.00 773.50 L 383.00 778.50 L 394.00 776.50 L 394.00 781.50 L 404.50 782.00 L 389.00 784.50 Z M 623.50 815.00 L 646.50 810.00 L 642.50 809.00 L 645.50 808.00 L 642.50 803.00 L 650.00 781.50 L 611.00 780.50 L 546.00 763.50 L 547.00 758.50 L 522.00 751.50 L 529.00 757.50 L 543.50 760.00 L 543.00 773.50 L 516.00 769.50 L 499.00 776.50 L 503.50 772.00 L 500.00 768.50 L 502.50 772.00 L 495.00 780.50 L 466.50 788.00 L 467.00 792.50 L 487.50 790.00 L 471.50 793.00 L 472.00 811.50 L 486.00 805.50 L 519.00 803.50 L 534.00 813.50 L 545.00 798.50 L 568.50 796.00 L 538.00 794.50 L 586.00 792.50 L 617.00 802.50 L 623.50 815.00 Z M 233.00 758.50 L 224.00 754.50 L 245.50 755.00 L 233.00 758.50 Z M 827.00 761.50 L 840.00 757.50 L 837.00 755.50 L 803.00 754.50 L 858.50 755.00 L 827.00 761.50 Z M 182.00 762.50 L 144.50 755.00 L 183.00 754.50 L 162.50 757.00 L 182.00 762.50 Z M 289.00 767.50 L 224.50 760.00 L 273.00 762.50 L 289.00 767.50 Z M 218.00 771.50 L 182.50 763.00 L 218.00 771.50 Z M 776.00 774.50 L 794.50 768.00 L 790.00 765.50 L 788.00 768.50 L 787.00 762.50 L 793.00 766.50 L 815.50 764.00 L 776.00 774.50 Z M 283.00 771.50 L 224.50 764.00 L 283.00 771.50 Z M 413.00 773.50 L 406.00 772.50 L 433.50 766.00 L 413.00 773.50 Z M 251.00 779.50 L 241.50 776.00 L 246.50 773.00 L 241.50 772.00 L 244.00 768.50 L 251.00 779.50 Z M 619.50 780.00 L 616.00 774.50 L 596.50 774.00 L 619.50 780.00 Z M 284.00 792.50 L 231.50 776.00 L 266.00 783.50 L 284.00 792.50 Z M 391.50 782.00 L 379.00 781.50 L 381.00 777.50 L 359.00 778.50 L 363.50 781.00 L 356.50 782.00 L 391.50 782.00 Z M 621.00 790.50 L 590.00 784.50 L 586.50 785.00 L 591.00 790.50 L 583.00 790.50 L 562.50 784.00 L 568.50 783.00 L 566.00 777.50 L 608.00 788.50 L 628.00 788.50 L 621.00 790.50 Z M 370.00 790.50 L 330.50 785.00 L 370.00 790.50 Z M 523.00 791.50 L 487.50 789.00 L 523.00 791.50 Z M 517.50 830.00 L 546.00 828.50 L 527.00 822.50 L 524.00 825.50 L 505.00 822.50 L 495.00 829.50 L 480.00 829.50 L 470.00 824.50 L 468.00 828.50 L 447.50 828.00 L 517.50 830.00 Z"/>
  <path fill="#CF4C10" fill-rule="evenodd" d="M 467.00 244.50 L 453.00 220.50 L 451.00 235.50 L 437.50 208.00 L 431.50 207.00 L 433.50 215.00 L 438.50 216.00 L 434.50 219.00 L 436.00 225.50 L 422.00 204.50 L 425.00 217.50 L 398.00 207.50 L 379.00 206.50 L 328.00 216.50 L 288.50 230.00 L 339.00 196.50 L 341.50 193.00 L 336.50 192.00 L 340.00 187.50 L 343.00 191.50 L 382.50 167.00 L 372.00 153.50 L 366.50 153.00 L 392.50 153.00 L 392.50 143.00 L 401.50 133.00 L 401.50 126.00 L 389.50 113.00 L 405.50 106.00 L 377.00 75.50 L 350.00 56.50 L 329.00 45.50 L 307.00 41.50 L 301.50 60.00 L 302.50 93.00 L 309.50 134.00 L 325.50 181.00 L 315.00 160.50 L 313.50 174.00 L 312.00 168.50 L 305.00 170.50 L 302.50 150.00 L 308.50 145.00 L 305.00 138.50 L 297.50 144.00 L 289.50 92.00 L 291.50 34.00 L 297.00 27.50 L 318.00 28.50 L 352.00 42.50 L 395.00 71.50 L 420.00 95.50 L 439.00 102.50 L 433.00 87.50 L 467.00 97.50 L 496.00 85.50 L 488.50 102.00 L 504.00 99.50 L 533.00 71.50 L 570.00 45.50 L 621.00 26.50 L 632.50 30.00 L 638.50 51.00 L 633.00 123.50 L 629.50 110.00 L 634.50 112.00 L 634.00 94.50 L 628.50 96.00 L 626.50 119.00 L 621.50 115.00 L 626.50 60.00 L 621.00 41.50 L 601.00 45.50 L 578.00 56.50 L 549.00 77.50 L 523.50 104.00 L 537.50 113.00 L 526.50 128.00 L 528.50 136.00 L 537.50 144.00 L 536.50 150.00 L 547.00 155.50 L 551.50 152.00 L 551.50 157.00 L 540.50 163.00 L 544.50 166.00 L 538.50 167.00 L 590.00 191.50 L 591.00 196.50 L 629.50 229.00 L 577.00 211.50 L 589.00 227.50 L 562.00 223.50 L 564.50 221.00 L 561.00 219.50 L 584.50 223.00 L 569.50 216.00 L 574.00 211.50 L 555.00 208.50 L 510.00 215.50 L 498.00 221.50 L 509.00 202.50 L 483.00 236.50 L 492.50 212.00 L 506.00 194.50 L 482.50 216.00 L 469.50 233.00 L 467.00 244.50 Z M 340.00 123.50 L 326.50 92.00 L 330.00 85.50 L 340.00 123.50 Z M 588.00 119.50 L 598.00 94.50 L 588.00 119.50 Z M 545.50 192.00 L 548.50 189.00 L 543.00 185.50 L 528.00 187.50 L 524.50 192.00 L 545.50 192.00 Z M 566.50 193.00 L 562.00 186.50 L 558.50 188.00 L 561.00 190.50 L 549.50 191.00 L 566.50 193.00 Z M 403.00 244.50 L 353.00 229.50 L 333.50 231.00 L 358.00 210.50 L 358.00 221.50 L 387.00 224.50 L 411.00 236.50 L 412.50 241.00 L 406.00 238.50 L 407.50 242.00 L 403.00 244.50 Z M 541.00 254.50 L 514.50 240.00 L 532.00 227.50 L 559.00 223.50 L 594.50 234.00 L 541.00 254.50 Z M 388.00 251.50 L 371.00 245.50 L 368.50 240.00 L 392.00 245.50 L 394.50 248.00 L 388.00 251.50 Z M 453.00 324.50 L 447.50 317.00 L 446.50 274.00 L 456.00 270.50 L 458.00 264.50 L 482.00 261.50 L 484.50 270.00 L 479.50 322.00 L 453.00 324.50 Z M 271.00 304.50 L 262.50 300.00 L 268.00 286.50 L 265.50 298.00 L 271.00 304.50 Z M 490.00 542.50 L 405.00 541.50 L 352.00 534.50 L 315.00 520.50 L 287.50 497.00 L 273.50 473.00 L 275.00 468.50 L 287.50 488.00 L 291.50 486.00 L 279.50 468.00 L 272.50 441.00 L 270.50 399.00 L 274.50 374.00 L 271.50 372.00 L 263.50 414.00 L 262.50 401.00 L 271.50 354.00 L 277.00 360.50 L 283.00 351.50 L 285.00 359.50 L 299.50 322.00 L 308.00 319.50 L 313.50 322.00 L 317.50 338.00 L 321.50 339.00 L 325.50 371.00 L 342.50 404.00 L 357.50 425.00 L 381.00 445.50 L 400.00 454.50 L 424.00 456.50 L 461.00 447.50 L 510.50 428.00 L 436.00 469.50 L 395.00 485.50 L 371.00 488.50 L 370.00 492.50 L 403.00 493.50 L 441.00 483.50 L 569.00 418.50 L 617.00 401.50 L 657.00 395.50 L 682.00 396.50 L 678.00 398.50 L 694.00 399.50 L 712.50 408.00 L 682.00 414.50 L 658.00 427.50 L 695.00 433.50 L 728.50 449.00 L 674.00 461.50 L 670.00 466.50 L 692.00 472.50 L 726.00 474.50 L 720.00 476.50 L 832.00 480.50 L 834.50 467.00 L 825.50 439.00 L 796.00 396.50 L 766.00 374.50 L 736.00 363.50 L 721.00 362.50 L 728.50 361.00 L 722.50 360.00 L 723.00 352.50 L 693.00 351.50 L 753.00 355.50 L 756.50 357.00 L 753.00 359.50 L 770.00 363.50 L 801.00 381.50 L 824.50 404.00 L 840.50 427.00 L 859.50 480.00 L 861.00 498.50 L 829.00 492.50 L 744.00 491.50 L 694.00 499.50 L 612.00 527.50 L 538.00 539.50 L 490.00 542.50 Z M 591.00 379.50 L 604.00 351.50 L 604.50 359.00 L 615.50 367.00 L 599.00 369.50 L 591.00 379.50 Z"/>
  <path fill="#FFFFFF" fill-rule="evenodd" d="M 545.00 192.50 L 524.50 192.00 L 528.00 187.50 L 540.00 186.50 L 548.50 189.00 L 546.00 188.50 L 544.50 190.00 L 547.50 191.00 L 545.00 192.50 Z M 562.00 193.50 L 549.50 191.00 L 561.00 190.50 L 558.50 188.00 L 562.00 186.50 L 565.50 191.00 L 562.00 193.50 Z M 184.00 314.50 L 175.50 313.00 L 179.00 308.50 L 181.50 311.00 L 179.50 313.00 L 182.00 311.50 L 184.00 314.50 Z M 835.00 343.50 L 831.00 340.50 L 816.00 341.50 L 811.50 337.00 L 831.00 326.50 L 830.50 334.00 L 835.00 333.50 L 837.50 337.00 L 835.00 343.50 Z M 205.00 368.50 L 204.00 365.50 L 199.00 367.50 L 197.50 363.00 L 201.00 361.50 L 209.00 365.50 L 205.00 368.50 Z M 188.00 377.50 L 179.00 376.50 L 178.50 372.00 L 180.00 370.50 L 188.00 377.50 Z M 121.00 418.50 L 103.50 416.00 L 116.00 409.50 L 121.00 410.50 L 118.50 409.00 L 127.00 404.50 L 123.50 408.00 L 128.50 413.00 L 126.50 415.00 L 132.50 415.00 L 121.00 418.50 Z M 142.00 466.50 L 140.50 464.00 L 156.50 432.00 L 170.50 415.00 L 172.50 407.00 L 175.00 407.50 L 179.50 417.00 L 165.50 433.00 L 176.00 429.50 L 179.50 432.00 L 162.00 441.50 L 142.00 466.50 Z M 899.00 419.50 L 891.50 418.00 L 894.00 409.50 L 908.50 417.00 L 899.00 419.50 Z M 220.00 430.50 L 217.50 430.00 L 219.00 427.50 L 214.50 428.00 L 220.00 416.50 L 222.50 422.00 L 220.00 430.50 Z M 242.00 437.50 L 242.00 417.50 L 242.00 437.50 Z M 219.00 438.50 L 194.50 432.00 L 208.00 432.50 L 220.00 436.50 L 219.00 438.50 Z M 155.00 455.50 L 153.50 453.00 L 172.00 436.50 L 179.50 434.00 L 178.00 439.50 L 174.00 437.50 L 155.00 455.50 Z M 157.00 457.50 L 170.00 444.50 L 169.50 449.00 L 174.50 450.00 L 172.00 455.50 L 163.00 455.50 L 163.00 452.50 L 157.00 457.50 Z M 100.00 533.50 L 91.00 533.50 L 92.50 531.00 L 88.00 527.50 L 69.00 533.50 L 46.00 531.50 L 59.00 518.50 L 61.50 520.00 L 59.50 518.00 L 65.50 514.00 L 67.00 508.50 L 71.00 513.50 L 73.50 512.00 L 73.50 517.00 L 77.00 517.50 L 75.50 519.00 L 80.00 523.50 L 106.00 514.50 L 153.00 511.50 L 138.00 508.50 L 142.50 507.00 L 139.50 506.00 L 141.50 503.00 L 137.00 497.50 L 130.00 497.50 L 129.50 502.00 L 125.00 504.50 L 118.50 498.00 L 123.50 489.00 L 121.50 487.00 L 129.50 489.00 L 127.00 495.50 L 139.00 478.50 L 170.00 471.50 L 172.50 472.00 L 171.50 481.00 L 180.00 485.50 L 183.50 481.00 L 181.00 461.50 L 182.50 468.00 L 190.00 476.50 L 202.00 477.50 L 213.00 470.50 L 236.00 474.50 L 236.50 480.00 L 245.50 489.00 L 232.00 484.50 L 227.00 490.50 L 216.00 494.50 L 203.00 488.50 L 171.00 505.50 L 170.00 508.50 L 203.00 499.50 L 206.00 493.50 L 211.00 492.50 L 221.00 495.50 L 223.00 500.50 L 229.00 496.50 L 243.00 500.50 L 244.00 498.50 L 249.50 502.00 L 246.50 503.00 L 247.50 510.00 L 244.50 511.00 L 248.50 512.00 L 211.00 506.50 L 207.50 505.00 L 210.50 504.00 L 208.00 501.50 L 198.00 505.50 L 258.50 518.00 L 176.00 510.50 L 199.00 514.50 L 193.00 518.50 L 186.00 517.50 L 187.00 514.50 L 176.00 513.50 L 161.00 520.50 L 152.00 517.50 L 153.00 513.50 L 103.00 520.50 L 80.50 527.00 L 142.00 517.50 L 127.50 520.00 L 133.00 528.50 L 184.00 528.50 L 133.00 529.50 L 100.00 533.50 Z M 175.00 474.50 L 172.00 470.50 L 162.50 471.00 L 175.00 466.50 L 177.50 469.00 L 175.00 474.50 Z M 242.00 498.50 L 225.50 494.00 L 232.00 486.50 L 236.00 487.50 L 244.50 492.00 L 242.00 498.50 Z M 165.50 508.00 L 139.00 495.50 L 128.50 496.00 L 139.00 496.50 L 165.50 508.00 Z M 95.00 517.50 L 92.50 516.00 L 96.50 515.00 L 95.50 510.00 L 91.50 509.00 L 104.00 497.50 L 114.50 501.00 L 108.00 507.50 L 121.50 500.00 L 106.50 511.00 L 117.00 512.50 L 95.00 517.50 Z M 242.50 503.00 L 224.50 501.00 L 242.50 503.00 Z M 809.00 525.50 L 804.00 525.50 L 801.00 520.50 L 792.00 517.50 L 791.00 511.50 L 787.50 516.00 L 789.50 518.00 L 783.00 520.50 L 771.00 520.50 L 766.00 517.50 L 756.00 517.50 L 749.00 521.50 L 742.00 517.50 L 710.50 520.00 L 759.00 509.50 L 805.00 508.50 L 820.50 511.00 L 815.50 512.00 L 817.50 514.00 L 809.00 525.50 Z M 256.00 528.50 L 236.00 527.50 L 236.50 522.00 L 232.00 518.50 L 204.50 517.00 L 253.00 519.50 L 245.00 519.50 L 246.50 523.00 L 243.50 526.00 L 256.00 528.50 Z M 909.00 527.50 L 900.50 520.00 L 915.00 524.50 L 908.00 524.50 L 909.00 527.50 Z M 957.00 531.50 L 945.50 526.00 L 948.00 519.50 L 958.50 530.00 L 957.00 531.50 Z M 690.00 530.50 L 684.00 529.50 L 700.00 523.50 L 702.50 524.00 L 701.00 528.50 L 709.50 529.00 L 690.00 530.50 Z M 839.00 528.50 L 813.50 528.00 L 839.00 528.50 Z M 119.00 590.50 L 97.50 590.00 L 119.00 590.50 Z M 246.00 677.50 L 234.00 677.50 L 224.00 672.50 L 216.50 662.00 L 212.50 645.00 L 212.50 625.00 L 216.50 607.00 L 224.00 596.50 L 237.00 590.50 L 249.00 591.50 L 256.00 595.50 L 264.50 608.00 L 267.50 619.00 L 267.50 647.00 L 264.50 660.00 L 255.00 673.50 L 246.00 677.50 Z M 586.00 676.50 L 571.50 676.00 L 572.00 592.50 L 587.00 592.50 L 603.00 597.50 L 611.50 607.00 L 615.50 617.00 L 616.50 646.00 L 613.50 658.00 L 604.00 670.50 L 586.00 676.50 Z M 56.00 683.50 L 56.00 612.50 L 56.00 683.50 Z M 531.00 684.50 L 531.00 639.50 L 531.00 684.50 Z M 470.00 749.50 L 462.00 747.50 L 479.50 748.00 L 470.00 749.50 Z M 447.00 762.50 L 442.50 761.00 L 455.00 749.50 L 453.50 754.00 L 457.50 754.00 L 447.00 762.50 Z M 623.00 815.50 L 624.50 812.00 L 617.00 802.50 L 606.00 801.50 L 586.00 792.50 L 538.00 794.50 L 568.50 796.00 L 545.00 798.50 L 539.50 810.00 L 534.00 813.50 L 519.00 803.50 L 508.00 803.50 L 499.00 807.50 L 486.00 805.50 L 482.00 808.50 L 475.00 807.50 L 472.00 811.50 L 470.50 799.00 L 473.50 798.00 L 471.50 793.00 L 474.00 791.50 L 523.50 791.00 L 488.00 788.50 L 467.00 792.50 L 466.50 788.00 L 488.00 783.50 L 516.00 769.50 L 533.00 770.50 L 552.00 780.50 L 583.00 790.50 L 591.50 790.00 L 587.00 784.50 L 615.00 790.50 L 644.00 786.50 L 608.00 788.50 L 573.00 780.50 L 546.00 767.50 L 543.00 759.50 L 527.00 756.50 L 522.50 753.00 L 526.00 752.50 L 547.00 758.50 L 544.50 760.00 L 546.00 763.50 L 611.00 780.50 L 627.00 783.50 L 650.00 781.50 L 645.50 802.00 L 642.50 803.00 L 642.50 806.00 L 645.50 806.00 L 642.50 809.00 L 646.50 810.00 L 623.00 815.50 Z M 568.00 783.50 L 552.00 779.50 L 548.50 777.00 L 550.00 774.50 L 546.00 776.50 L 541.50 773.00 L 545.50 771.00 L 545.00 767.50 L 568.00 780.50 L 568.00 783.50 Z M 740.00 774.50 L 737.00 770.50 L 731.50 770.00 L 744.00 768.50 L 738.50 771.00 L 741.50 772.00 L 740.00 774.50 Z M 690.00 798.50 L 685.50 797.00 L 687.50 782.00 L 683.50 780.00 L 686.50 778.00 L 682.00 776.50 L 712.00 770.50 L 725.50 771.00 L 727.50 777.00 L 725.00 775.50 L 723.00 780.50 L 720.00 778.50 L 719.00 782.50 L 718.00 780.50 L 717.00 783.50 L 713.00 783.50 L 710.00 792.50 L 693.00 797.50 L 691.00 794.50 L 690.00 798.50 Z M 619.00 780.50 L 598.50 775.00 L 616.00 774.50 L 621.50 778.00 L 619.00 780.50 Z M 391.00 782.50 L 356.50 782.00 L 363.50 781.00 L 359.00 778.50 L 381.00 777.50 L 379.00 781.50 L 391.00 782.50 Z M 419.00 804.50 L 408.50 800.00 L 408.50 794.00 L 411.50 792.00 L 408.50 791.00 L 437.00 784.50 L 434.50 797.00 L 429.00 802.50 L 419.00 804.50 Z M 517.00 830.50 L 469.00 830.50 L 468.50 828.00 L 472.00 825.50 L 478.00 829.50 L 495.00 829.50 L 505.00 822.50 L 522.00 822.50 L 523.00 825.50 L 527.00 822.50 L 528.00 825.50 L 532.00 823.50 L 546.00 828.50 L 517.00 830.50 Z M 468.00 829.50 L 447.50 828.00 L 468.00 829.50 Z"/>
</svg>
